<svg t="1579597697942" class="icon" viewBox="0 0 1024 1024" version="1.1" xmlns="http://www.w3.org/2000/svg" p-id="2367" width="200" height="200"><path d="M775.99999971 962h-527.99999942c-101.99999971 0-186.00000029-83.99999971-186.00000029-186.00000029v-527.99999942c0-101.99999971 83.99999971-186.00000029 186.00000029-186.00000029h527.99999942c101.99999971 0 186.00000029 83.99999971 186.00000029 186.00000029v527.99999942c0 101.99999971-83.99999971 186.00000029-186.00000029 186.00000029z" fill="#9654F5" p-id="2368"></path><path d="M482.00000029 320.00000029h-102.00000058v-108h-65.99999971v108h-108v65.99999971h108v108h65.99999971v-108h102.00000058v-65.99999971z m59.99999942 0h270v65.99999971h-270v-65.99999971z m-77.99999942 450l-78.00000029-90 101.99999971-96.00000029-36-42.00000029-95.99999942 90-96.00000029-108-42.00000029 42.00000029 90 108-83.99999971 83.99999971 36 42.00000029 83.99999971-83.99999971 72 90 48.00000058-36z m77.99999942-186.00000029h270v65.99999971h-270V584z m0 132.00000029h270v65.99999971h-270v-65.99999971z" fill="#FFFFFF" p-id="2369"></path></svg>
