<svg t="1576137173275" class="icon" viewBox="0 0 1024 1024" version="1.1" xmlns="http://www.w3.org/2000/svg" p-id="1413" width="128" height="128"><path d="M552.139697 449.59422568h-81.189113v81.192184h81.189113v-81.192184z m0 142.118812h-81.189113v81.239255h81.189113v-81.239255z m324.901765-467.01853h-81.239256V63.76583368c0-11.195993-9.063423-20.260439-20.260439-20.26044-11.244089 0-20.310581 9.063423-20.310582 20.26044v60.928674H267.905144V63.76583368c0-11.195993-9.111518-20.260439-20.308535-20.26044-11.19804 0-20.310581 9.063423-20.310581 20.26044v60.928674h-81.189114c-44.883233 0-81.237209 36.401048-81.237209 81.237209v649.754411c0 44.88528 36.352953 81.239256 81.237209 81.239256h730.944548c44.883233 0 81.237209-36.401048 81.237209-81.239256V205.93171668c0-44.835138-36.352953-81.237209-81.237209-81.237209z m40.619116 730.99162c0 22.395056-18.178011 40.62014-40.618093 40.620139H146.097938c-22.443152 0-40.666188-18.226107-40.666189-40.620139V368.35803968h812.228829v487.328088z m0-527.947204h-812.228829V205.93171668c0-22.443152 18.22406-40.668235 40.666189-40.668235h81.189113v60.97677c0 11.19804 9.111518 20.262486 20.310582 20.262486 11.195993 0 20.308535-9.063423 20.308535-20.262486v-60.97677H755.234255v60.97677c0 11.19804 9.06547 20.262486 20.310582 20.262486 11.195993 0 20.260439-9.063423 20.260439-20.262486v-60.97677h81.239256c22.441105 0 40.618093 18.226107 40.618093 40.668235v121.807207h-0.002047zM755.232209 591.71303768h-81.23721v81.239255h81.23721v-81.239255z m0-142.118812h-81.23721v81.192184h81.23721v-81.192184zM552.139697 733.83082568h-81.189113v81.237209h81.189113v-81.237209z m-202.998367 0H267.905144v81.237209h81.237209v-81.237209h-0.001023z m0-284.2366H267.905144v81.192184h81.237209v-81.192184h-0.001023z m0 142.118812H267.905144v81.239255h81.237209v-81.239255h-0.001023z" p-id="1414"></path></svg>