<svg t="1576137105658" class="icon" viewBox="0 0 1024 1024" version="1.1" xmlns="http://www.w3.org/2000/svg" p-id="1413" width="128" height="128"><path d="M916.14 530.58666666H271.36a25.8 25.8 0 0 1 0-51.6h644.78a25.8 25.8 0 0 1 0 51.6z m0-262.72H271.36a25.8 25.8 0 0 1 0-51.6h644.78a25.8 25.8 0 0 1 0 51.6zM121.42 544.20666666a39.4 39.4 0 1 1 0-78.8 39.4 39.4 0 0 1 0 78.8z m0-262.72a39.4 39.4 0 1 1 0.04-78.84 39.4 39.4 0 0 1-0.04 78.84z m0 482.14a39.4 39.4 0 1 1 0 78.8 39.4 39.4 0 0 1 0-78.8z m149.94 13.6h644.78a25.8 25.8 0 0 1 0 51.6H271.36a25.8 25.8 0 0 1 0-51.6z" fill="" p-id="1414"></path></svg>