<svg t="1579597731819" class="icon" viewBox="0 0 1025 1024" version="1.1" xmlns="http://www.w3.org/2000/svg" p-id="2487" width="200" height="200"><path d="M277.11213821 82.18747088h474.37817955c107.17790997 0 194.06246451 86.88541824 194.0624645 194.06332821v474.37817956c0 107.17790997-86.88541824 194.06332905-194.0624645 194.06332904H277.11213821c-107.17877534 0-194.06332905-86.88628362-194.06332821-194.06332904V276.2507991c0-107.17790997 86.88455369-194.06332905 194.06332821-194.06332821z" fill="#00A0E9" p-id="2488"></path><path d="M369.42416616 596.53489671c-5.90743737 0-13.55398344 2.37560077-22.9681773 7.07145573-17.66696383 9.45138006-34.17596361 13.56695575-49.47078566 12.37785814-53.00262226-2.34792706-81.27114849-35.3598723-84.80471417-99.00902569 2.34619798-64.80884823 30.61385883-99.00816115 84.80471417-102.54518666 21.20139488 1.18823308 37.10244084 4.72352784 47.70400241 10.60761585 9.41419387 2.37560077 17.06074078 3.53616013 22.96817814 3.53616015 16.48132607 0 25.31437528-10.00052745 26.50174298-30.05606436-2.37387169-29.44897593-34.75537833-45.96835271-97.17392353-49.50451285-96.59277973 8.26055335-148.40976252 63.64915339-155.47689471 166.19434007 5.88062819 103.73255352 57.69588192 157.95800057 155.47689471 162.65817908 65.95124634-1.18823308 100.10040077-17.68166607 102.47427246-49.50624276-3.53356567-20.02959313-13.55484798-30.63720901-30.0353095-31.8245767z m174.91150635-118.45660963c-34.17682814-10.60761587-51.23670354-22.37665565-51.23670354-35.36073684 0-17.67993614 12.36834483-27.09931894 37.10157547-28.28755201 14.13512808 1.18823308 25.89465454 4.14324857 35.33565842 8.83996806 10.60069702 2.37560077 18.82752319 3.53616013 24.7358251 3.53616013 17.66782922 0 27.66230234-11.18876052 30.03617404-33.59308904-2.37387169-25.91195125-31.80209191-40.66368024-88.34000976-44.19984036-70.67131601 5.91089637-107.77375601 40.08426551-111.3073217 102.54518583 0 41.27163321 31.19586801 70.71974459 93.64035786 88.39968075 37.68099102 10.61021034 56.53705247 22.98460863 56.53705247 37.13097909-1.18736769 25.9370305-16.50813439 38.89603243-45.93635544 38.89603243-11.78633563 0-27.10883142-2.92734177-45.93635461-8.84342708-10.60069702-4.69585496-20.62111478-7.65087046-30.03530951-8.83910353-18.85519691 2.37560077-28.87561468 12.98667565-30.03530948 31.82457669 1.15969482 30.66401733 37.6827201 46.55036189 109.54140466 47.73859497 73.01837853-3.53616013 111.88760178-37.13270902 116.60853514-100.77667348-0.00172992-47.12891208-33.57146963-80.14258639-100.70921912-99.01075561z m242.05185031-1e-8c-34.17682814-10.60761587-51.23843346-22.37665565-51.23843348-35.36073684 0-17.67993614 12.36921022-27.09931894 37.10330539-28.287552 14.13512808 1.18823308 25.89292547 4.14324857 35.33565843 8.83996806 10.60069702 2.37560077 18.82665866 3.53616013 24.7358251 3.53616013 17.66609929 0 27.66057326-11.18876052 30.03357958-33.59308904-2.37300631-25.91195125-31.80122736-40.66368024-88.33914438-44.19984036-70.67218055 5.91089637-107.77289147 40.08426551-111.30645799 102.54518582 0 41.27163321 31.19413893 70.71974459 93.63862878 88.39968076 37.68099102 10.61021034 56.53705247 22.98460863 56.53705246 37.13097909-1.18736769 25.9370305-16.50813439 38.89603243-45.93635544 38.89603243-11.78633563 0-27.10883142-2.92734177-45.93635461-8.84342708-10.60069702-4.69585496-20.62198017-7.65087046-30.03444496-8.83910353-18.85606146 2.37560077-28.87647921 12.98667565-30.03617319 31.82457669 1.16055936 30.66401733 37.68358549 46.55036189 109.54140382 47.73859497 73.01751315-3.53616013 111.88673725-37.13270902 116.60853515-100.77667348-0.00086454-47.12891208-33.56973971-80.14258639-100.70662466-99.01075561z" fill="#FFFFFF" p-id="2489"></path></svg>
