<svg t="1582179885591" class="icon" viewBox="0 0 1024 1024" version="1.1" xmlns="http://www.w3.org/2000/svg" p-id="1856" width="200" height="200"><path d="M578.02145185 135.28936297C609.09037037 189.65997037 628.50844445 251.79780741 628.50844445 317.81925925c0 201.94797037-166.99543703 368.94340741-368.94340742 368.94340742-27.1853037 0-54.37060741-3.88361482-81.55591111-7.76722964 62.13783703 135.92651852 198.06435555 233.01688889 357.29256297 233.01688889 213.59881482 0 388.36148148-174.76266667 388.36148148-388.36148147-3.88361482-201.94797037-155.34459259-368.94340741-345.64171852-388.36148148z m-306.80557037 50.48699258h-46.60337778v-46.60337777c0-11.65084445-11.65084445-23.30168889-23.30168888-23.30168889s-23.30168889 11.65084445-23.3016889 23.30168889v46.60337777h-46.60337777c-11.65084445 0-23.30168889 11.65084445-23.3016889 23.3016889s11.65084445 23.30168889 23.3016889 23.30168888h46.60337777V278.98311111c0 11.65084445 11.65084445 23.30168889 23.3016889 23.30168889s23.30168889-11.65084445 23.30168888-23.30168889V232.37973333h46.60337778c11.65084445 0 23.30168889-11.65084445 23.30168889-23.30168888s-11.65084445-23.30168889-23.30168889-23.3016889z"  p-id="1857"></path><path d="M263.44865185 189.65997037h-42.71976296v-42.71976296c0-11.65084445-7.76722963-23.30168889-19.41807407-23.30168889s-23.30168889 7.76722963-23.3016889 23.30168889v42.71976296h-42.71976295c-11.65084445 0-23.30168889 7.76722963-23.30168889 23.30168888s7.76722963 23.30168889 23.30168889 23.3016889h42.71976295V278.98311111c0 11.65084445 7.76722963 23.30168889 23.3016889 23.30168889s19.41807408-7.76722963 19.41807407-23.30168889V236.26334815h42.71976296c11.65084445 0 19.41807408-7.76722963 19.41807407-23.3016889 0-15.53445925-7.76722963-23.30168889-19.41807407-23.30168888z"  p-id="1858"></path><path d="M411.02601482 469.28023703h-34.95253334V434.3277037c0-7.76722963-7.76722963-15.53445925-15.53445926-15.53445925s-19.41807408 7.76722963-19.41807407 15.53445925v34.95253333h-34.95253333c-7.76722963 0-15.53445925 7.76722963-15.53445927 15.53445927s7.76722963 15.53445925 15.53445927 15.53445925h34.95253333v34.95253334c0 7.76722963 7.76722963 15.53445925 15.53445926 15.53445926s15.53445925-7.76722963 15.53445926-15.53445926v-34.95253334h34.95253333c7.76722963 0 15.53445925-7.76722963 15.53445925-15.53445925 3.88361482-11.65084445-3.88361482-15.53445925-11.65084443-15.53445927z"  p-id="1859"></path><path d="M403.25878518 469.28023703h-31.06891851v-31.06891851c0-7.76722963-7.76722963-15.53445925-15.53445926-15.53445927s-15.53445925 7.76722963-15.53445926 15.53445927v31.06891851h-31.06891852c-7.76722963 0-15.53445925 7.76722963-15.53445926 15.53445927s7.76722963 15.53445925 15.53445926 15.53445925h31.06891852v31.06891853c0 7.76722963 7.76722963 15.53445925 15.53445926 15.53445925s15.53445925-7.76722963 15.53445926-15.53445925v-31.06891853h31.06891851c7.76722963 0 15.53445925-7.76722963 15.53445927-15.53445925s-3.88361482-15.53445925-15.53445927-15.53445927z"  p-id="1860"></path><path d="M574.13783703 162.47466667c27.1853037 50.48699259 46.60337778 108.74121482 46.60337779 170.87905185 0 190.29712592-155.34459259 341.7581037-341.75810371 341.7581037-27.1853037 0-50.48699259-3.88361482-73.78868148-7.76722963 54.37060741 128.15928889 182.5298963 213.59881482 330.10725926 213.59881482 198.06435555 0 361.17617778-163.11182222 361.17617778-361.17617778-3.88361482-186.41351111-143.69374815-337.87448889-322.34002964-357.29256296z"  p-id="1861"></path></svg>