<svg t="1582179817329" class="icon" viewBox="0 0 1024 1024" version="1.1" xmlns="http://www.w3.org/2000/svg" p-id="7640" width="200" height="200"><path d="M515 515m-244 0a244 244 0 1 0 488 0 244 244 0 1 0-488 0Z"  p-id="7641"></path><path d="M513 209.7c13.3 0 24.1-10.8 24.1-24.1V89.2c0-13.3-10.8-24.1-24.1-24.1s-24.1 10.8-24.1 24.1v96.4c0 13.3 10.8 24.1 24.1 24.1zM264.9 297.6c9.4 9.4 24.7 9.4 34.1 0 9.4-9.4 9.4-24.7 0-34.1l-68.2-68.2c-9.4-9.4-24.7-9.4-34.1 0-9.4 9.4-9.4 24.7 0 34.1l68.2 68.2zM209.7 511c0-13.3-10.8-24.1-24.1-24.1H89.2c-13.3 0-24.1 10.8-24.1 24.1s10.8 24.1 24.1 24.1h96.4c13.3 0 24.1-10.8 24.1-24.1zM297.6 725c-9.4-9.4-24.7-9.4-34.1 0l-68.2 68.2c-9.4 9.4-9.4 24.7 0 34.1 9.4 9.4 24.7 9.4 34.1 0l68.2-68.2c9.3-9.4 9.3-24.7 0-34.1zM511 814.3c-13.3 0-24.1 10.8-24.1 24.1v96.4c0 13.3 10.8 24.1 24.1 24.1s24.1-10.8 24.1-24.1v-96.4c0-13.3-10.8-24.1-24.1-24.1zM759.1 726.4c-9.4-9.4-24.7-9.4-34.1 0-9.4 9.4-9.4 24.7 0 34.1l68.2 68.2c9.4 9.4 24.7 9.4 34.1 0 9.4-9.4 9.4-24.7 0-34.1l-68.2-68.2zM958.9 513c0-13.3-10.8-24.1-24.1-24.1h-96.4c-13.3 0-24.1 10.8-24.1 24.1s10.8 24.1 24.1 24.1h96.4c13.2 0 24.1-10.8 24.1-24.1zM760.5 299l68.2-68.2c9.4-9.4 9.4-24.7 0-34.1-9.4-9.4-24.7-9.4-34.1 0l-68.2 68.2c-9.4 9.4-9.4 24.7 0 34.1 9.4 9.4 24.8 9.4 34.1 0z"  p-id="7642"></path></svg>