<svg t="1579597834199" class="icon" viewBox="0 0 1024 1024" version="1.1" xmlns="http://www.w3.org/2000/svg" p-id="3120" width="200" height="200"><path d="M530 404h92.25v94.5H669.5c22.5 0 42.75-4.5 63-11.25 11.25-4.5 20.25-9 31.5-13.5-13.5-18-20.25-38.25-22.5-58.5-2.25-29.25 2.25-65.25 22.5-87.75l9-11.25 11.25 9c29.25 22.5 54 56.25 58.5 92.25 36-11.25 76.5-6.75 105.75 9l13.5 6.75-6.75 13.5c-27 51.75-81 67.5-132.75 63-78.75 198-252 292.5-463.5 292.5-108 0-209.25-40.5-265.5-137.25v-2.25L84.5 647c-20.25-42.75-24.75-90-20.25-135l2.25-13.5h78.75v-94.5h92.25v-92.25H422v-90h110.25v182.25z m0 0" fill="#394D54" p-id="3121"></path><path d="M827 440c6.75-47.25-29.25-85.5-51.75-103.5-24.75 29.25-29.25 108 11.25 139.5-22.5 20.25-69.75 38.25-117 38.25H77.75c-4.5 49.5 4.5 96.75 24.75 137.25l6.75 11.25 13.5 20.25c24.75 2.25 47.25 2.25 67.5 2.25 40.5 0 72-4.5 96.75-13.5 4.5-2.25 6.75 0 9 4.5 2.25 4.5 0 6.75-4.5 9-2.25 0-6.75 2.25-11.25 2.25-20.25 4.5-40.5 9-67.5 11.25h-2.25H134c49.5 54 126 87.75 222.75 87.75 204.75 0 375.75-90 452.25-292.5 54 4.5 105.75-9 130.5-54-36-22.5-83.25-13.5-112.5 0z m0 0" fill="#00AADA" p-id="3122"></path><path d="M827 440c6.75-47.25-29.25-85.5-51.75-103.5-24.75 29.25-29.25 108 11.25 139.5-22.5 20.25-69.75 38.25-117 38.25H113.75c-2.25 76.5 27 135 76.5 171 40.5 0 72-4.5 96.75-13.5 4.5-2.25 6.75 0 9 4.5 2.25 4.5 0 6.75-4.5 9-2.25 0-6.75 2.25-11.25 2.25-20.25 4.5-42.75 9-69.75 11.25 69.75 36 171 36 285.75-9 128.25-49.5 249.75-144 333-252 0 0 0 2.25-2.25 2.25z m0 0" fill="#24B8EB" p-id="3123"></path><path d="M226.25 426.5h6.75v65.25h-6.75v-65.25z m-13.5 0H219.5v65.25h-6.75v-65.25z m-11.25 0h6.75v65.25h-6.75v-65.25z m-13.5 0h6.75v65.25h-6.75v-65.25z m-11.25 0h6.75v65.25h-6.75v-65.25z m-11.25 0h6.75v65.25h-6.75v-65.25z m-6.75-6.75h78.75v78.75H158.75v-78.75z m157.5-85.5h6.75V399.5h-6.75v-65.25z m-11.25 0h6.75V399.5h-6.75v-65.25z m-11.25 0h6.75V399.5h-6.75v-65.25z m-13.5 0h6.75V399.5h-6.75v-65.25z m-11.25 0h6.75V399.5h-6.75v-65.25z m-11.25 0H264.5V399.5h-6.75v-65.25z m-6.75-6.75h78.75v78.75H251v-78.75z m0 0" fill="#00ACD3" p-id="3124"></path><path d="M316.25 426.5h6.75v65.25h-6.75v-65.25z m-11.25 0h6.75v65.25h-6.75v-65.25z m-11.25 0h6.75v65.25h-6.75v-65.25z m-13.5 0h6.75v65.25h-6.75v-65.25z m-11.25 0h6.75v65.25h-6.75v-65.25z m-11.25 0H264.5v65.25h-6.75v-65.25z m-6.75-6.75h78.75v78.75H251v-78.75z m0 0" fill="#20C2EF" p-id="3125"></path><path d="M408.5 426.5h6.75v65.25h-6.75v-65.25z m-11.25 0h6.75v65.25h-6.75v-65.25z m-11.25 0h6.75v65.25h-6.75v-65.25z m-13.5 0h6.75v65.25h-6.75v-65.25z m-11.25 0h6.75v65.25h-6.75v-65.25z m-11.25 0h4.5v65.25h-6.75v-65.25z m-6.75-6.75H422v78.75h-78.75v-78.75z m0 0" fill="#00ACD3" p-id="3126"></path><path d="M408.5 334.25h6.75V399.5h-6.75v-65.25z m-11.25 0h6.75V399.5h-6.75v-65.25z m-11.25 0h6.75V399.5h-6.75v-65.25z m-13.5 0h6.75V399.5h-6.75v-65.25z m-11.25 0h6.75V399.5h-6.75v-65.25z m-11.25 0h4.5V399.5h-6.75v-65.25z m-6.75-6.75H422v78.75h-78.75v-78.75z m157.5 99h6.75v65.25h-6.75v-65.25z m-11.25 0h6.75v65.25H489.5v-65.25z m-13.5 0h6.75v65.25h-6.75v-65.25z m-11.25 0h6.75v65.25h-6.75v-65.25z m-11.25 0h6.75v65.25h-6.75v-65.25z m-13.5 0h6.75v65.25h-6.75v-65.25z m-6.75-6.75H512v78.75h-78.75v-78.75z m0 0" fill="#20C2EF" p-id="3127"></path><path d="M500.75 334.25h6.75V399.5h-6.75v-65.25z m-11.25 0h6.75V399.5H489.5v-65.25z m-13.5 0h6.75V399.5h-6.75v-65.25z m-11.25 0h6.75V399.5h-6.75v-65.25z m-11.25 0h6.75V399.5h-6.75v-65.25z m-13.5 0h6.75V399.5h-6.75v-65.25z m-6.75-6.75H512v78.75h-78.75v-78.75z m0 0" fill="#00ACD3" p-id="3128"></path><path d="M500.75 242h6.75v67.5h-6.75V242zM489.5 242h6.75v67.5H489.5V242z m-13.5 0h6.75v67.5h-6.75V242z m-11.25 0h6.75v67.5h-6.75V242z m-11.25 0h6.75v67.5h-6.75V242z m-13.5 0h6.75v67.5h-6.75V242z m-6.75-6.75H512v78.75h-78.75V235.25z m0 0" fill="#20C2EF" p-id="3129"></path><path d="M593 426.5h6.75v65.25h-6.75v-65.25z m-11.25 0h6.75v65.25h-6.75v-65.25z m-13.5 0h6.75v65.25h-6.75v-65.25z m-11.25 0h6.75v65.25H557v-65.25z m-11.25 0h6.75v65.25h-6.75v-65.25z m-13.5 0h6.75v65.25h-6.75v-65.25z m-6.75-6.75h78.75v78.75h-78.75v-78.75z m0 0" fill="#00ACD3" p-id="3130"></path><path d="M325.25 629c11.25 0 22.5 9 22.5 22.5 0 11.25-9 22.5-22.5 22.5-11.25 0-22.5-9-22.5-22.5s11.25-22.5 22.5-22.5" fill="#D4EDF1" p-id="3131"></path><path d="M325.25 635.75h4.5c-2.25 2.25-4.5 4.5-2.25 6.75 0 2.25 2.25 4.5 6.75 4.5 2.25 0 4.5-2.25 4.5-4.5 0 2.25 2.25 4.5 2.25 6.75 0 9-6.75 15.75-15.75 15.75-9 0-15.75-6.75-15.75-15.75 0-6.75 6.75-13.5 15.75-13.5" fill="#394D54" p-id="3132"></path><path d="M383.75 786.5c-54-24.75-85.5-60.75-101.25-99-20.25 6.75-45 9-72 11.25H176.75c-13.5 0-29.25 0-42.75-2.25 49.5 49.5 110.25 87.75 225 90 9 2.25 15.75 2.25 24.75 0z m0 0" fill="#BFDBE0" p-id="3133"></path><path d="M302.75 723.5c-9-11.25-15.75-22.5-20.25-36-20.25 6.75-45 9-72 11.25 18 11.25 47.25 20.25 92.25 24.75z m0 0" fill="#D4EDF1" p-id="3134"></path></svg>
