<svg t="1578493418127" class="icon" viewBox="0 0 1024 1024" version="1.1" xmlns="http://www.w3.org/2000/svg" p-id="1940" width="200" height="200"><path d="M929.91791673 138.33285973H94.69135417c-49.36492487 0-89.50574307 41.91154859-89.50574308 93.41649352V792.24948167c0 51.50261475 40.14081934 93.41649351 89.50574308 93.41649351h835.22656256c49.36492487 0 89.50574307-41.91387875 89.50574308-93.41649351V231.75051833c0-51.50611001-40.14081934-93.41765859-89.50574308-93.4176586zM64.87552227 792.24948167V243.68663666l263.46365952 275.03864263h-0.25978424L64.87552227 793.44938439v-1.19990272z m43.06019328-591.62303829h808.74016996L512.30521799 622.66946219 107.93571555 200.62644338z m262.41869597 361.9896411l141.95080647 148.15418709 142.6276443-148.88344803 250.53500075 261.48323897H120.54750777l249.80690375-260.75397803z m327.58505699-43.89080519h-1.66937941L959.73491371 243.68663666v548.30073059L697.93946851 518.72527929z" fill="" p-id="1941"></path></svg>