<svg t="1579597907173" class="icon" viewBox="0 0 1024 1024" version="1.1" xmlns="http://www.w3.org/2000/svg" p-id="3252" width="200" height="200"><path d="M32.84432938 512.00545156m39.93073593-39.93073593l399.30735938-399.30735938q39.93073594-39.93073594 79.86147187 0l399.30735844 399.30735937q39.93073594 39.93073594 0 79.86147188l-399.30735844 399.30735844q-39.93073594 39.93073594-79.86147187 0l-399.30735938-399.30735844q-39.93073594-39.93073594 0-79.86147187Z" fill="#DE4C36" p-id="3253"></path><path d="M358.2798275 186.56995344l39.93073594-39.93073594 319.44588656 319.4458875-39.93073594 39.93073594z" fill="#FFFFFF" p-id="3254"></path><path d="M526.1176475 328.47058813m-70.58823562-1e-8a70.58823562 70.58823562 0 1 0 141.17647031 0 70.58823562 70.58823562 0 1 0-141.17647032 0Z" fill="#FFFFFF" p-id="3255"></path><path d="M723.76470594 512m-70.58823563 0a70.58823562 70.58823562 0 1 0 141.17647125 0 70.58823562 70.58823562 0 1 0-141.17647125 0Z" fill="#FFFFFF" p-id="3256"></path><path d="M497.8823525 370.82352969h56.47058906v282.35294062h-56.47058906z" fill="#FFFFFF" p-id="3257"></path><path d="M526.1176475 695.52941187m-70.58823562 1e-8a70.58823562 70.58823562 0 1 0 141.17647031 0 70.58823562 70.58823562 0 1 0-141.17647032 0Z" fill="#FFFFFF" p-id="3258"></path></svg>
