<svg t="1574931040721" class="icon" viewBox="0 0 1024 1024" version="1.1" xmlns="http://www.w3.org/2000/svg" p-id="1015" width="128" height="128"><path d="M417.32571406 992s-404.68571437-93.64571437-223.81714218-558.4228575c0 0 41.07428531 51.6571425 35.42857123 76.5028575 0 0 32.18285719-117.32571469 101.66857126-187.40571469C390.2628575 262.46857156 450.87999969 93.18857187 394.97142875 32c0 0 276.89142844 61.18857187 307.72571436 367.17714281 0 0 35.42857125-97.50857156 108.1371422-107.13142875 0 0-22.35428531 53.55428531 0 133.92 0 0 229.37142844 413.02857188-165.94285687 552.64000031 0 0 118.51428562-141.53142844-132.79999969-384.43428562 0 0-59.2228575 130.05714281-94.65142875 175.93142812-0.11428594 0.11428594-98.97142875 116.68571437-0.11428594 221.89714313z" p-id="1016"></path></svg>