<svg t="1576153424906" class="icon" viewBox="0 0 1024 1024" version="1.1" xmlns="http://www.w3.org/2000/svg" p-id="4418" width="128" height="128"><path d="M389.5 376.3v318.8s-2.1 108.4-127.1 72.9l-93.8-50V299.2l348-210.5L868.7 293v408.4L529.1 938.9l-135.4-95.8" fill="#FAFFF3" p-id="4419"></path><path d="M529.1 955.7c-3.4 0-6.8-1-9.7-3.1L384 856.8c-7.6-5.4-9.4-15.8-4-23.4 5.4-7.6 15.8-9.4 23.4-4l125.8 89L852 692.7v-390L516.7 108.3 185.4 308.7V708l83.3 44.4c34.6 9.5 61 7.8 78.7-5.2 24.1-17.7 25.4-52.1 25.4-52.5V376.3c0-9.3 7.5-16.8 16.8-16.8s16.8 7.5 16.8 16.8v318.8c0 2.4-1.4 51.2-38.8 78.9-26.7 19.8-63.7 23.2-109.7 10.2-1.2-0.3-2.3-0.8-3.3-1.3l-93.8-50c-5.5-2.9-8.9-8.6-8.9-14.8V299.2c0-5.9 3.1-11.3 8.1-14.4L508 74.4c5.3-3.2 11.8-3.3 17.1-0.2l352.1 204.2c5.2 3 8.4 8.5 8.4 14.5v408.4c0 5.5-2.7 10.6-7.2 13.8L538.7 952.7c-2.9 2-6.3 3-9.6 3z" fill="#80B03C" p-id="4420"></path><path d="M606.2 753.1c-18 0-36.5-2.5-54.1-7.7-46.3-13.6-79.6-42.4-93.6-81.1-3.2-8.7 1.4-18.4 10.1-21.5 8.8-3.1 18.4 1.3 21.5 10.1 13.9 38.3 50.7 54.2 71.5 60.3 41.6 12.2 89.4 6.4 116.2-14.1 18.1-13.8 29.3-35.9 29.4-57.5 0-32.7-21.7-45.4-59.3-56.2-14.5-4.2-29.4-7.5-44.4-11-31.5-7.2-64-14.6-94.3-29.3-19.2-9.3-43.5-21.1-47.6-55.5-5.3-44.8 17.5-86.9 59.6-109.8 30-16.3 64.2-22.7 94.2-17.6 38.9 6.7 89.6 28.9 115.1 70.9 4.8 7.9 2.3 18.3-5.6 23.1-8 4.8-18.3 2.3-23.1-5.6-19.7-32.5-61.9-50.1-92.1-55.3-22.2-3.8-49.3 1.4-72.4 14-30.2 16.5-46.1 45-42.3 76.3 1.8 15.5 10.2 20.2 27.4 28.6 28.4 13.8 59 20.8 88.6 27.5 15.6 3.5 31.1 7.1 46.2 11.4 27.2 7.9 83.7 24.2 83.6 88.6 0 31.9-16.3 64.2-42.6 84.2-23.4 17.7-56.9 27.2-92 27.2z" fill="#80B03C" p-id="4421"></path></svg>