<svg t="1579597969979" class="icon" viewBox="0 0 1024 1024" version="1.1" xmlns="http://www.w3.org/2000/svg" p-id="3631" width="200" height="200"><path d="M244.36363625 992V180.36363594h267.63636375v337.45454625l136.7272725-98.90909156 133.81818187 98.90909156V180.36363594H933.81818187v738.90909094c0 40.7272725-34.90909125 72.72727312-75.63636374 72.72727312H244.36363625zM133.81818219 119.27272719v29.09090906c0 20.36363625 11.63636344 31.99999969 31.99999968 31.99999969H206.54545438V992H165.81818187C125.09090937 992 90.18181813 960.00000031 90.18181813 919.27272687V119.27272719C90.18181813 78.54545469 125.09090937 46.545455 165.81818187 46.545455H904.72727281c17.45454563 0 29.09090906 11.63636344 29.09090907 29.09090906V90.18181813H165.81818187c-20.36363625 0-31.99999969 8.72727281-31.99999968 29.09090906z" fill="#3F92FE" p-id="3632"></path><path d="M648.7272725 369.45454531l-98.90909062 72.72727313V142.545455h191.99999999v299.63636344z" fill="#FF9F7F" p-id="3633"></path></svg>
