<svg t="1579597952861" class="icon" viewBox="0 0 1024 1024" version="1.1" xmlns="http://www.w3.org/2000/svg" p-id="3496" width="200" height="200"><path d="M179.3 112.5v237.7" fill="#DFF0F8" p-id="3497"></path><path d="M179.3 359.6c-5.2 0-9.4-4.2-9.4-9.4V112.5c0-5.2 4.2-9.4 9.4-9.4s9.4 4.2 9.4 9.4v237.7c0 5.2-4.2 9.4-9.4 9.4z" fill="#263138" p-id="3498"></path><path d="M797.4 106.3v277.2" fill="#DFF0F8" p-id="3499"></path><path d="M797.4 392.9c-5.2 0-9.4-4.2-9.4-9.4V106.3c0-5.2 4.2-9.4 9.4-9.4s9.4 4.2 9.4 9.4v277.2c0.1 5.2-4.2 9.4-9.4 9.4z" fill="#263138" p-id="3500"></path><path d="M502.8 110.3V725" fill="#DFF0F8" p-id="3501"></path><path d="M502.8 734.4c-5.2 0-9.4-4.2-9.4-9.4V110.3c0-5.2 4.2-9.4 9.4-9.4s9.4 4.2 9.4 9.4V725c0 5.2-4.2 9.4-9.4 9.4z" fill="#263138" p-id="3502"></path><path d="M117.9 591.7c-54.5-51.8-61.1-138.4-3.2-193.4 52.3-49.7 131.7-56.7 186.7-19.4-21.3 5.2-41.7 15.9-58.6 32.1-48.2 45.7-41 117.7 4.2 160.8 15.9 15.1 35.6 24.7 56.6 28.7-57.4 40.3-136.5 37.9-185.7-8.8z" fill="#79ACDC" p-id="3503"></path><path d="M214 638.5c-37.8 0-74.7-13.5-102.6-40-29.7-28.2-46.8-67.2-46.8-106.9 0-37.9 15.5-73.5 43.6-100.2 55.1-52.4 138.6-60.9 198.5-20.4 3.1 2.1 4.6 5.8 4 9.5-0.7 3.7-3.4 6.6-7 7.5-20.4 5-39.2 15.3-54.4 29.7-19.4 18.5-30.1 43.1-30.1 69.3 0 28.7 12.5 57 34.4 77.8 14.1 13.4 32 22.5 51.9 26.3 3.7 0.7 6.6 3.6 7.4 7.3 0.8 3.7-0.7 7.5-3.8 9.7-29 20.4-62.4 30.4-95.1 30.4z m8.6-273.6c-36.4 0-73.5 13.8-101.3 40.3C97 428.3 83.6 459 83.6 491.7c0 34.5 14.9 68.5 40.9 93.2 40.8 38.7 103.6 45.4 155.9 18.6-14.8-5.7-28.3-14.2-39.7-25-25.6-24.3-40.2-57.6-40.2-91.5 0-31.4 12.8-60.9 36-83 12.2-11.6 26.5-20.9 41.9-27.4-17.5-7.8-36.5-11.7-55.8-11.7z" fill="#263138" p-id="3504"></path><path d="M840.8 499.1l-29.2-93.2c-9.4-29.9-24.5-29.9-33.9 0l-29.2 93.2-80.6 5.1c-32.7 2.1-38.1 19-11.8 37.8l64.6 46.2-25.4 81.3c-9.4 29.9 4.4 39 30.7 20.3l68.7-48.8 68.7 48.8c26.3 18.7 40.1 9.6 30.7-20.3l-25.4-81.3 64.6-46.2c26.2-18.8 21-35.7-11.8-37.8l-80.7-5.1z" fill="#EFD97F" p-id="3505"></path><path d="M886 709c-6.9 0-16.1-2.9-28.2-11.5l-63.2-44.9-63.2 44.9c-21.2 15.1-33.5 12.5-40 7.8-6.4-4.6-12.5-15.1-5.1-38.6l23.4-74.8-59.1-42.3c-20.5-14.7-22.1-27.3-19.9-35.2 2.3-8.1 10.5-18 36.6-19.7l74.1-4.7 27.2-87c7.5-24 18.2-29.1 25.9-29.1 7.7 0 18.4 5 25.9 29.1l27.2 87 74.1 4.7c26.1 1.6 34.3 11.6 36.6 19.7 2.3 7.9 0.7 20.5-19.9 35.2l-59 42.3 23.4 74.8c7.4 23.5 1.3 34-5.1 38.6-2.6 2-6.5 3.7-11.7 3.7z m-91.3-315.9c-1.2 1-4.5 4.6-7.9 15.6l-29.2 93.2c-1.2 3.7-4.5 6.3-8.4 6.6l-80.6 5.1c-15 0.9-19.4 5.1-19.6 6-0.3 0.9 1.2 6.4 12.7 14.7l64.6 46.2c3.3 2.4 4.7 6.6 3.5 10.5l-25.4 81.3c-3.8 12-2.3 17.1-1.7 17.8 0.8 0.3 6.6 0.1 18-8l68.7-48.8c3.3-2.3 7.7-2.3 10.9 0l68.7 48.8c11.4 8.1 17.2 8.2 18.1 7.9 0.4-0.6 1.9-5.7-1.9-17.7L859.8 591c-1.2-3.9 0.2-8.1 3.5-10.5l64.6-46.2c11.5-8.3 13-13.8 12.7-14.7-0.3-1-4.7-5.1-19.7-6l-80.6-5.1c-3.9-0.2-7.2-2.9-8.4-6.6l-29.2-93.2c-3.5-11-6.8-14.5-8-15.6z" fill="#263138" p-id="3506"></path><path d="M376.7 795.8a127.3 126.1 90 1 0 252.2 0 127.3 126.1 90 1 0-252.2 0Z" fill="#F4D75B" p-id="3507"></path><path d="M502.8 932.5c-74.7 0-135.5-61.3-135.5-136.7s60.8-136.7 135.5-136.7 135.5 61.3 135.5 136.7-60.8 136.7-135.5 136.7z m0-254.6c-64.3 0-116.6 52.9-116.6 117.9s52.3 117.9 116.6 117.9 116.6-52.9 116.6-117.9-52.3-117.9-116.6-117.9z" fill="#263138" p-id="3508"></path><path d="M545.2 336.4h-84.8c-5.2 0-9.4-4.2-9.4-9.4s4.2-9.4 9.4-9.4h84.8c5.2 0 9.4 4.2 9.4 9.4s-4.2 9.4-9.4 9.4z" fill="#263138" p-id="3509"></path><path d="M839.8 261H755c-5.2 0-9.4-4.2-9.4-9.4s4.2-9.4 9.4-9.4h84.8c5.2 0 9.4 4.2 9.4 9.4s-4.2 9.4-9.4 9.4z" fill="#263138" p-id="3510"></path><path d="M221.7 251.6h-84.8c-5.2 0-9.4-4.2-9.4-9.4s4.2-9.4 9.4-9.4h84.8c5.2 0 9.4 4.2 9.4 9.4s-4.2 9.4-9.4 9.4z" fill="#263138" p-id="3511"></path><path d="M884.3 148H121.2c-13 0-23.6-10.6-23.6-23.6 0-13 10.6-23.6 23.6-23.6h763.1c13 0 23.6 10.6 23.6 23.6 0 13-10.6 23.6-23.6 23.6z" fill="#79ACDC" p-id="3512"></path><path d="M884.3 157.4H121.2c-18.2 0-33-14.8-33-33s14.8-33 33-33h763.1c18.2 0 33 14.8 33 33s-14.8 33-33 33z m-763.1-47.1c-7.8 0-14.1 6.3-14.1 14.1s6.3 14.1 14.1 14.1h763.1c7.8 0 14.1-6.3 14.1-14.1s-6.3-14.1-14.1-14.1H121.2z" fill="#263138" p-id="3513"></path></svg>
