<svg t="1582262961322" class="icon" viewBox="0 0 1024 1024" version="1.1" xmlns="http://www.w3.org/2000/svg" p-id="38835" width="200" height="200"><path d="M728.847059 1024c-146.070588-158.117647-210.823529-373.458824-171.670588-588.8 3.011765-15.058824-7.529412-30.117647-22.588236-33.129412-15.058824-3.011765-30.117647 7.529412-33.129411 22.588236-39.152941 216.847059-43.670588 432.188235 91.858823 599.341176h135.529412z"  p-id="38836"></path><path d="M626.447059 0c-45.176471 0-87.341176 21.082353-114.447059 54.211765V512S772.517647 266.541176 772.517647 147.576471C772.517647 66.258824 707.764706 0 626.447059 0"  p-id="38837"></path><path d="M397.552941 0c45.176471 0 87.341176 21.082353 114.447059 54.211765V512S251.482353 266.541176 251.482353 147.576471C251.482353 66.258824 316.235294 0 397.552941 0" p-id="38838"></path><path d="M626.447059 0c-45.176471 0-87.341176 21.082353-114.447059 54.211765C484.894118 21.082353 444.235294 0 397.552941 0c-81.317647 0-147.576471 66.258824-147.57647 147.576471 0 118.964706 260.517647 364.423529 260.517647 364.423529S771.011765 266.541176 771.011765 147.576471C772.517647 66.258824 707.764706 0 626.447059 0" p-id="38839"></path><path d="M969.788235 510.494118c33.129412-27.105882 54.211765-67.764706 54.211765-112.941177 0-81.317647-66.258824-147.576471-147.576471-147.57647-118.964706 0-364.423529 260.517647-364.423529 260.517647s246.964706 260.517647 364.423529 260.517647c81.317647 0 147.576471-66.258824 147.576471-147.576471 0-45.176471-21.082353-85.835294-54.211765-112.941176M147.576471 249.976471C66.258824 249.976471 0 316.235294 0 397.552941c0 45.176471 21.082353 85.835294 54.211765 112.941177C21.082353 537.6 0 578.258824 0 623.435294c0 81.317647 66.258824 147.576471 147.576471 147.576471 118.964706 0 364.423529-260.517647 364.423529-260.517647S265.035294 249.976471 147.576471 249.976471" p-id="38840"></path></svg>
