<svg t="1579597812870" class="icon" viewBox="0 0 1024 1024" version="1.1" xmlns="http://www.w3.org/2000/svg" p-id="2859" width="200" height="200"><path d="M625.57142857 449.42857143v-17.14285714c0-45 44.14285714-72.42857143 44.14285714-72.42857143-23.14285714-32.57142857-74.14285714-34.28571429-74.14285714-34.28571429-23.57142857 0.42857143-46.71428571 6.42857143-67.28571428 17.14285714-17.57142857 6.42857143-26.14285714 0-26.14285715 0-16.28571429-10.71428571-35.57142857-16.71428571-55.71428571-17.14285714C345.71428571 325.57142857 342.71428571 439.14285714 342.71428571 439.14285714c1.71428571 62.57142857 31.28571429 122.14285714 81.85714286 165 24.42857143 21 63.42857143 0 63.42857143 0 16.28571429-11.14285714 37.28571429-13.71428571 55.71428571-6.85714285 48.85714286 26.57142857 69.85714286 6.85714286 69.85714286 6.85714285 51.42857143-33 67.71428571-93 67.71428572-93-58.28571429-25.28571429-55.71428571-61.71428571-55.71428572-61.71428571z m-29.57142857-216.42857143c-50.57142857 4.28571429-87.85714286 43.71428571-85.71428571 89.57142857 93.42857143-6.85714286 85.71428571-89.57142857 85.71428571-89.57142857z" fill="#2F8CFF" p-id="2860"></path><path d="M830 111.28571429H194C132.71428571 111.28571429 83.42857143 159.71428571 83.42857143 219.71428571v428.57142858c0 60 49.28571429 108 110.57142857 108H426.28571429v42.85714285H256.57142857c-11.14285714 0-21.85714286 6.42857143-27.42857143 16.28571429L201.71428571 867.71428571c-11.14285714 20.57142857 3.42857143 45 27.42857143 45h571.28571429c23.14285714 0 38.14285714-24.85714286 27.42857143-45l-28.28571429-52.28571428c-5.57142857-9.42857143-15.42857143-16.28571429-27.42857143-16.28571429h-174v-42.85714285h232.28571429c61.28571429 0 110.57142857-49.28571429 110.57142857-109.28571429V219.71428571C940.57142857 160.57142857 891.28571429 111.28571429 830 111.28571429z m55.71428571 537c0 30-25.28571429 54.85714286-55.71428571 54.85714285H194c-30.85714286 0-55.71428571-24.85714286-55.71428571-54.85714285V220.57142857c0-30 25.28571429-54.85714286 55.71428571-54.85714286V164.85714286h636c30.85714286 0 55.71428571 24.85714286 55.71428571 54.85714285v428.57142858z" fill="#2F8CFF" p-id="2861"></path></svg>
