<svg t="1580812741514" class="icon" viewBox="0 0 1024 1024" version="1.1" xmlns="http://www.w3.org/2000/svg" p-id="8907" width="200" height="200"><path d="M0 0m113.777778 0l796.444444 0q113.777778 0 113.777778 113.777778l0 796.444444q0 113.777778-113.777778 113.777778l-796.444444 0q-113.777778 0-113.777778-113.777778l0-796.444444q0-113.777778 113.777778-113.777778Z" fill="#26A358" p-id="8908"></path><path d="M366.364444 466.147556L474.055111 284.444444h97.208889v455.111112h-66.631111V388.124444h-0.910222l-138.723556 214.727112-140.558222-214.741334h-1.365333V739.555556H156.444444V284.444444h98.56l110.449778 181.703112h0.910222zM778.808889 284.444444v227.555556h78.819555a5.688889 5.688889 0 0 1 4.906667 8.561778l-125.866667 214.798222a2.844444 2.844444 0 0 1-4.906666 0l-125.866667-214.798222a5.688889 5.688889 0 0 1 4.920889-8.561778h78.805333V284.444444h89.201778z" fill="#FFFFFF" p-id="8909"></path></svg>