<svg t="1579597984320" class="icon" viewBox="0 0 1024 1024" version="1.1" xmlns="http://www.w3.org/2000/svg" p-id="3751" width="200" height="200"><path d="M780.97066667 596.30933333c-11.83288889 37.888-31.17511111 72.36266667-56.43377778 101.71733334-31.85777778-20.93511111-67.69777778-37.20533333-106.15466667-48.24177778 6.37155555-36.40888889 10.35377778-76.23111111 11.264-118.32888889h204.91377778c0.45511111-6.82666667 0.68266667-13.65333333 0.68266667-20.48 0-6.94044445-0.34133333-13.88088889-0.68266667-20.70755555h-41.41511111v0.22755555H629.64622222c-0.91022222-42.21155555-4.89244445-82.03377778-11.264-118.32888889 38.45688889-11.03644445 74.29688889-27.30666667 106.15466667-48.24177778 25.25866667 29.35466667 44.60088889 63.71555555 56.32 101.48977778h43.12177778c-37.66044445-139.94666667-165.31911111-242.91555555-317.09866667-242.91555556-151.77955555 0-279.43822222 102.96888889-317.09866667 242.91555556h43.12177778c11.71911111-37.77422222 31.06133333-72.13511111 56.20622222-101.48977778 31.85777778 20.93511111 67.69777778 37.09155555 106.26844445 48.128-6.37155555 36.40888889-10.35377778 76.23111111-11.264 118.44266667H220.38755555v-0.22755555h-41.4151111c-0.45511111 6.82666667-0.68266667 13.76711111-0.68266667 20.70755555s0.22755555 13.76711111 0.68266667 20.48h205.02755555c0.91022222 42.21155555 4.89244445 82.03377778 11.264 118.44266667-38.57066667 11.03644445-74.41066667 27.19288889-106.26844445 48.128-25.25866667-29.35466667-44.60088889-63.82933333-56.32-101.71733334h-43.12177777c37.54666667 139.94666667 165.31911111 243.14311111 317.21244444 243.14311112s279.552-103.08266667 317.21244445-243.14311112h-43.008z m-86.016-302.19377778c-25.82755555 15.92888889-54.49955555 28.672-84.992 37.66044445-10.01244445-40.84622222-23.32444445-75.20711111-38.912-100.69333333 46.64888889 10.58133333 88.97422222 32.65422222 123.904 63.03288888zM425.07377778 490.38222222c0.91022222-40.84622222 4.66488889-77.25511111 10.24-108.99911111 23.21066667 4.096 46.99022222 6.37155555 71.56622222 6.37155556 24.46222222 0 48.35555555-2.16177778 71.56622222-6.25777778 5.46133333 31.744 9.216 68.15288889 10.24 108.99911111H425.07377778z m163.38488889 41.07377778c-0.91022222 40.73244445-4.66488889 77.25511111-10.24 108.99911111-23.09688889-4.096-46.99022222-6.25777778-71.45244445-6.25777778s-48.35555555 2.27555555-71.56622222 6.37155556c-5.46133333-31.744-9.216-68.15288889-10.24-108.99911111h163.49866667z m-81.69244445-307.88266667c15.13244445 0 44.032 40.50488889 63.26044445 117.64622222-20.48 3.52711111-41.52888889 5.46133333-63.26044445 5.46133334-21.61777778 0-42.78044445-1.93422222-63.14666667-5.46133334 19.22844445-77.14133333 48.128-117.64622222 63.14666667-117.64622222z m-188.07466667 70.54222222c34.92977778-30.37866667 77.25511111-52.33777778 123.79022223-63.03288888-15.58755555 25.48622222-28.89955555 59.84711111-38.912 100.69333333-30.37866667-8.98844445-58.93688889-21.73155555-84.87822223-37.66044445z m0 433.7208889c25.82755555-15.92888889 54.38577778-28.672 84.87822223-37.66044445 10.01244445 40.73244445 23.32444445 75.20711111 38.912 100.69333333-46.53511111-10.69511111-88.74666667-32.65422222-123.79022223-63.03288888z m188.07466667 70.54222222c-15.13244445 0-44.032-40.50488889-63.14666667-117.64622222 20.48-3.52711111 41.52888889-5.46133333 63.14666667-5.46133334s42.78044445 1.93422222 63.26044445 5.46133334c-19.22844445 77.14133333-48.128 117.64622222-63.26044445 117.64622222z m64.28444445-7.50933334c15.58755555-25.48622222 29.01333333-59.84711111 38.912-100.69333333 30.60622222 8.98844445 59.05066667 21.61777778 84.992 37.54666667-34.92977778 30.37866667-77.25511111 52.45155555-123.904 63.14666666z" fill="#1195FE" p-id="3752"></path><path d="M202.63822222 510.976m-41.984 0a41.984 41.984 0 1 0 83.968 0 41.984 41.984 0 1 0-83.968 0Z" fill="#FFFFFF" p-id="3753"></path><path d="M202.63822222 569.11644445c-32.08533333 0-58.14044445-26.05511111-58.14044444-58.14044445 0-32.08533333 26.05511111-58.14044445 58.14044444-58.14044445s58.14044445 26.05511111 58.14044445 58.14044445c0 32.08533333-26.05511111 58.14044445-58.14044445 58.14044445z m0-83.85422223c-14.22222222 0-25.71377778 11.49155555-25.71377777 25.71377778 0 14.22222222 11.49155555 25.71377778 25.71377777 25.71377778s25.71377778-11.49155555 25.71377778-25.71377778c0-14.22222222-11.49155555-25.71377778-25.71377778-25.71377778z" fill="#1195FE" p-id="3754"></path><path d="M818.51733333 510.976m-41.984 0a41.984 41.984 0 1 0 83.968 0 41.984 41.984 0 1 0-83.968 0Z" fill="#FFFFFF" p-id="3755"></path><path d="M818.51733333 569.11644445c-32.08533333 0-58.14044445-26.05511111-58.14044444-58.14044445 0-32.08533333 26.05511111-58.14044445 58.14044444-58.14044445 32.08533333 0 58.14044445 26.05511111 58.14044445 58.14044445 0 32.08533333-26.16888889 58.14044445-58.14044445 58.14044445z m0-83.85422223c-14.22222222 0-25.71377778 11.49155555-25.71377778 25.71377778 0 14.22222222 11.49155555 25.71377778 25.71377778 25.71377778 14.22222222 0 25.71377778-11.49155555 25.71377778-25.71377778 0-14.22222222-11.60533333-25.71377778-25.71377778-25.71377778z" fill="#1195FE" p-id="3756"></path><path d="M491.29244445 83.05777778c6.37155555-0.22755555 12.85688889-0.45511111 19.22844444-0.45511111 236.43022222 0 428.71466667 192.28444445 428.71466666 428.71466666 0 132.77866667-60.64355555 251.56266667-155.648 330.29688889l12.17422223 31.63022223c106.95111111-84.53688889 175.90044445-215.26755555 175.90044444-361.92711112 0-254.29333333-206.848-461.14133333-461.14133333-461.14133333-10.58133333 0-21.04888889 0.45511111-31.51644444 1.25155555l12.288 31.63022223zM503.58044445 939.91822222c-233.24444445-3.75466667-421.77422222-194.44622222-421.77422223-428.60088889 0-123.33511111 52.45155555-234.60977778 135.96444445-312.88888888l-12.51555556-32.42666667c-95.57333333 84.53688889-155.98933333 207.98577778-155.98933333 345.31555555 0 254.29333333 206.848 461.14133333 461.14133333 461.14133334 1.82044445 0 3.75466667-0.11377778 5.57511111-0.11377778l-12.40177777-32.42666667z" fill="#AED7FF" p-id="3757"></path><path d="M510.52088889 956.64355555m-41.984 0a41.984 41.984 0 1 0 83.968 0 41.984 41.984 0 1 0-83.968 0Z" fill="#FFFFFF" p-id="3758"></path><path d="M510.52088889 1014.89777778c-32.08533333 0-58.14044445-26.05511111-58.14044444-58.14044445 0-32.08533333 26.05511111-58.14044445 58.14044444-58.14044444 32.08533333 0 58.14044445 26.05511111 58.14044444 58.14044444 0 31.97155555-26.05511111 58.14044445-58.14044444 58.14044445z m0-83.968c-14.22222222 0-25.71377778 11.49155555-25.71377778 25.71377777 0 14.22222222 11.49155555 25.71377778 25.71377778 25.71377778s25.71377778-11.49155555 25.71377778-25.71377778c0-14.10844445-11.49155555-25.71377778-25.71377778-25.71377777z" fill="#1195FE" p-id="3759"></path><path d="M510.52088889 65.19466667m-41.984 0a41.984 41.984 0 1 0 83.968 0 41.984 41.984 0 1 0-83.968 0Z" fill="#FFFFFF" p-id="3760"></path><path d="M510.52088889 123.33511111c-32.08533333 0-58.14044445-26.05511111-58.14044444-58.14044444s26.05511111-58.14044445 58.14044444-58.14044445c32.08533333 0 58.14044445 26.05511111 58.14044444 58.14044445s-26.05511111 58.14044445-58.14044444 58.14044444z m0-83.85422222c-14.22222222 0-25.71377778 11.49155555-25.71377778 25.71377778s11.49155555 25.71377778 25.71377778 25.71377778 25.71377778-11.49155555 25.71377778-25.71377778-11.49155555-25.71377778-25.71377778-25.71377778z" fill="#1195FE" p-id="3761"></path></svg>
