<svg t="1579598089690" class="icon" viewBox="0 0 1024 1024" version="1.1" xmlns="http://www.w3.org/2000/svg" p-id="2364" width="200" height="200"><path d="M939.74999961 101.4250001a26.12499961 26.12499961 0 0 0-18.1749999-18.1749999A542.5750002 542.5750002 0 0 0 642.275 79.25000029a539.9499999 539.9499999 0 0 0-250.2 142.07499932 8.97500039 8.97500039 0 0 1-7.44999961 2.62500029 221.24999971 221.24999971 0 0 0-180.0500001 63.5000001 218.925 218.925 0 0 0-63.32500019 130.74999961 222.3500001 222.3500001 0 0 0 29.9999997 139.5 26.2749999 26.2749999 0 0 0 41.40000001 4.85000068l3.85000048-3.95000068c6.75-6.75 13.74999961-13.3250001 20.94999961-19.64999971-2.45000039 20.25-3.67499971 40.70000039-3.84999961 61.12500029 0 5.0000001 1.4000001 9.9 4.02499952 14.19999962a539.8250001 539.8250001 0 0 0 75.87500009 95.00000009 542.94999961 542.94999961 0 0 0 94.97500049 75.85000049c4.20000029 2.62500029 9.1249998 4.02500039 14.19999961 4.02499951a545.625 545.625 0 0 0 61.12500029-3.84999961c-6.32499961 7.2-12.8750001 14.175-19.65000058 20.94999961l-5.42499961 5.34999991c-11.99999971 11.67500039-10.24999981 31.3999998 3.6 40.70000039a220.17499981 220.17499981 0 0 0 123.3 37.62500009 221.175 221.175 0 0 0 214.0499997-164.5250001 222.99999961 222.99999961 0 0 0 4.8250002-90.07500058 13.1000001 13.1000001 0 0 1 3.49999981-11.12499932 540.29999971 540.29999971 0 0 0 135.60000029-243.6249999c23.15000039-91.64999971 21.75000029-188.20000019-3.8750001-279.12500068z m-47.09999971 266.4a488.00000039 488.00000039 0 0 1-128.22499951 225.82500029c-2.45000039 2.45000039-5.07499981 5.0000001-7.90000049 7.72499971a26.325 26.325 0 0 0-7.2500001 25.4999997 170.75000039 170.75000039 0 0 1-0.27500009 85.17499981 168.75 168.75 0 0 1-43.74999932 76.02500039 168.95000039 168.95000039 0 0 1-173.1250002 40.60000019 8.75000039 8.75000039 0 0 1-3.9499998-13.92500039 472.6749999 472.6749999 0 0 0 39.19999922-53.24999941c12.72499981-20.0750001-5.52499981-45.42500039-28.59999961-39.62500049a492.99999961 492.99999961 0 0 1-104.42499961 14.55000029 13.1000001 13.1000001 0 0 1-7.65-2.1999999 494.20000019 494.20000019 0 0 1-137.95000049-137.95000049 13.1500002 13.1500002 0 0 1-2.17500029-7.62499951 487.50000029 487.50000029 0 0 1 14.55000029-104.4500001c5.7999999-23.05000019-19.55000039-41.37500039-39.62499961-28.575a477.74999971 477.74999971 0 0 0-49.30000049 35.94999991 8.79999961 8.79999961 0 0 1-14.1249999-4.5500001 169.5250002 169.5250002 0 0 1-4.47499951-62.7249999 166.8999999 166.8999999 0 0 1 48.24999932-99.62499991 168.3 168.3 0 0 1 151.52500019-46.20000058c8.87500019 1.7499999 18.07499971-1.24999981 24.22500029-7.89999961a487.2499998 487.2499998 0 0 1 237.49999981-140.32500029 489.6500001 489.6500001 0 0 1 229.82500019-2.09999971 13.05 13.05 0 0 1 9.82499942 9.82500029c17.52500039 75.4999998 16.8249999 154.42499971-2.09999971 229.84999981zM86.975 811.82499981c10.24999981 10.27500029 27 10.27500029 37.1750001 0l81.82500029-81.79999981a26.30000039 26.30000039 0 0 0-37.1750001-37.1750001L86.975 774.64999971a26.47500029 26.47500029 0 0 0 0 37.20000058z m181.10000039-56.99999971c-10.24999981-10.24999981-27-10.24999981-37.20000058 0L69.7000001 916.0499999a26.30000039 26.30000039 0 0 0 37.1750001 37.1750001l161.20000019-161.17499971c10.24999981-10.24999981 10.24999981-27 0-37.1750001z m61.9999998 61.9999998c-10.24999981-10.24999981-27-10.24999981-37.20000058 0l-81.82499941 81.8250003a26.30000039 26.30000039 0 0 0 37.1999997 37.1999997l81.8250003-81.82500029c10.24999981-10.24999981 10.24999981-26.92500029 0-37.17499922z" fill="#EF821F" p-id="2365"></path><path d="M547.8999998 306.35a168.525 168.525 0 0 0-168.3749997 168.37499971 168.525 168.525 0 0 0 168.37499971 168.40000019 168.525 168.525 0 0 0 168.37500058-168.40000019 168.525 168.525 0 0 0-168.37500059-168.37499971z m0 284.15000039a115.875 115.875 0 0 1-115.75000019-115.7500002 115.875 115.875 0 0 1 115.75000019-115.75000019 115.875 115.875 0 0 1 115.7500002 115.7500002 115.875 115.875 0 0 1-115.7500002 115.75000019z" fill="#EF821F" p-id="2366"></path></svg>
