<svg t="1579597775088" class="icon" viewBox="0 0 1024 1024" version="1.1" xmlns="http://www.w3.org/2000/svg" p-id="2607" width="200" height="200"><path d="M824.20948027 395.97720725c-15.68024943-5.99260318-32.84088526-11.62596553-51.05160816-16.75797096 4.66617687-18.34494422 8.36911565-36.02667574 11.01407257-52.59120999 14.99335057-93.82094966-1.52381043-159.79484899-46.50386124-185.76279546-13.1260898-7.57957641-28.17470839-11.4246331-44.71950384-11.4246322-39.61513197 0-87.82045078 22.14262857-139.40105036 64.03558095-13.02739773 10.57982585-26.48904217 22.62424762-40.03753559 35.8292907-13.56428481-13.21688708-27.02592834-25.26525624-40.03753559-35.83323901-51.58454694-41.88900499-99.79381405-64.03163355-139.40499774-64.03163264-16.54479547 0-31.59341315 3.84505579-44.72739864 11.4246322-44.98005079 25.96794558-61.4932644 91.94184581-46.49596644 185.75884807 2.64495692 16.56453333 6.34789569 34.25021315 11.01012426 52.59515738-18.21467028 5.13200543-35.37925351 10.76931519-51.05950294 16.76191835-88.74421225 33.92650159-137.62063945 81.21200725-137.62063947 133.15184672 0 51.93589206 48.87642721 99.22534512 137.62458685 133.15184763 15.67235375 5.99260318 32.84088526 11.62596553 51.05555556 16.76191836-4.65828118 18.31731066-8.36122087 35.99904218-11.01012426 52.58726167-15.00124536 93.82489706 1.51196735 159.79484899 46.49596644 185.76674286 13.1260898 7.57957641 28.17470839 11.4206857 44.71950296 11.42068571 39.61513197 0 87.82045078-22.13868027 139.40499863-64.03163355 13.02345034-10.57587845 26.48509387-22.62424762 40.04543038-35.8371864 13.54849343 13.20504399 27.01013786 25.24946485 40.04148299 35.83323901 51.58059955 41.88900499 99.78591836 64.03558095 139.40499865 64.03558094 16.54479547 0 31.58946575-3.84505579 44.71950295-11.4246331 44.98005079-25.96794558 61.4932644-91.94184581 46.49991474-185.76279547-2.64890431-16.58427211-6.35184309-34.27389933-11.01012518-52.59120907 18.19098413-5.12805714 35.35556735-10.7614204 51.04766077-16.75797097 88.74815963-33.92650159 137.62458685-81.21200725 137.62458685-133.15184763-0.00394739-51.94378775-48.88037551-99.23324082-137.62853515-133.1557941z m-131.50960545-230.46650793c10.31138231 0 19.37924082 2.21465759 26.94302677 6.58080907 37.33336327 21.55442177 44.53396191 97.42914376 18.90157006 198.28488798-37.99262857-8.72046077-79.13551927-15.14731066-122.34700227-19.11079728-25.03234195-35.43846894-51.170039-67.85695148-77.72224398-96.40669025 58.30352653-56.80734966 114.4358195-89.34820953 154.22464942-89.34820951zM355.44028753 620.38400091a1155.74334874 1155.74334874 0 0 0 29.18137142 47.78291519c-30.22356281-3.62398548-59.26281633-8.56255329-86.42296689-14.70516825 8.25463311-26.57983855 18.49495691-54.197922 30.47621497-82.19498413a1152.19831746 1152.19831746 0 0 0 26.7653805 49.11723719zM298.20263945 404.79636009c27.16804536-6.14261497 56.20729977-11.08513106 86.4190195-14.70122086a1153.84450703 1153.84450703 0 0 0-29.18531882 47.77896779 1153.3510449 1153.3510449 0 0 0-26.7614331 49.11723719c-11.96941497-27.98521905-22.20973878-55.5993542-30.47226757-82.19498412z m49.67386214 124.32479819a1132.42825487 1132.42825487 0 0 1 38.79401089-73.2218703 1132.83091973 1132.83091973 0 0 1 44.04049977-70.24135873 1135.02189116 1135.02189116 0 0 1 82.79503401-2.98840634c27.9457415 0 55.79673923 1.00666214 82.8029288 2.99235373a1131.54791836 1131.54791836 0 0 1 44.03655238 70.23741134 1133.47044625 1133.47044625 0 0 1 38.79795827 73.22976598 1131.72556463 1131.72556463 0 0 1-38.79795827 73.23371339 1131.44133061 1131.44133061 0 0 1-44.04049977 70.24135962c-27.00224217 1.98569161-54.85323991 2.98840635-82.79898141 2.98840636-27.94179411 0-55.78884354-1.00271474-82.79108571-2.98840636a1133.817844 1133.817844 0 0 1-44.04049977-70.24135962 1131.4492263 1131.4492263 0 0 1-38.79795919-73.24160907z m323.69135509 91.26284263a1145.62145579 1145.62145579 0 0 0 26.76932881-49.12118458c11.98125806 28.00100952 22.22553015 55.62304037 30.48016236 82.19893152-27.16015056 6.14261497-56.19940408 11.08118367-86.42691429 14.70516825a1154.17216599 1154.17216599 0 0 0 29.17742313-47.78291519z m0.00394741-182.51384128a1153.7142331 1153.7142331 0 0 0-29.17742222-47.7750204c30.21566713 3.62003718 59.25492063 8.56255329 86.42296598 14.70516916-8.2664762 26.59957733-18.5068 54.21766077-30.48016236 82.19498322a1150.9153161 1150.9153161 0 0 0-26.76538141-49.12513198z m-102.13479729-89.8772009c-18.78708662-0.91586575-37.58206803-1.38169342-55.93096054-1.38169342-18.34494422 0-37.13597913 0.46582857-55.92306576 1.38169342 18.25809524-24.37307664 37.04912925-47.04469659 55.92701315-67.46612879 18.88183128 20.43327619 37.67286531 43.10094785 55.92701315 67.46612879zM307.36919002 172.09545669c7.56378595-4.36615238 16.62769706-6.58080998 26.94302767-6.58080996 39.78883083 0 95.9290195 32.54085986 154.22859683 89.3521569-26.54825759 28.54184399-52.68595465 60.96032563-77.72224401 96.40274285-43.21543129 3.96348662-84.35832109 10.39033651-122.34305486 19.10684989-25.63633923-100.85574422-18.43968889-176.72651882 18.89367437-198.28093968z m-206.13685533 357.03359728c0-43.16016326 62.10515736-87.34672744 162.25821134-115.56091247 11.44437188 37.28204354 26.45746033 76.14711293 44.64054966 115.56091247-18.17914104 39.41379955-33.19223039 78.27886894-44.64054966 115.56091247-100.15305397-28.21418503-162.25821224-72.4007492-162.25821134-115.56091247z m233.0759347 363.61440726c-10.31138231 0-19.37529342-2.21465759-26.93907937-6.58080907-37.33731156-21.55442177-44.53396191-97.42914376-18.90156915-198.28488798 38.00052427 8.72440907 79.14736236 15.15125805 122.35094965 19.11079727 25.02839457 35.43057415 51.16609161 67.85300317 77.722244 96.39879547-58.30352653 56.81524444-114.43976689 89.35610521-154.23254513 89.35610431z m123.2786594-182.47831202c18.78708662 0.91586575 37.57417324 1.38564173 55.91911747 1.38564172 18.34889253 0 37.13992653-0.46582857 55.92701315-1.38564172-18.24230476 24.35333787-37.03333878 47.02495782-55.92306576 67.46612969-18.88577868-20.43327619-37.67286531-43.10094785-55.92306486-67.46612969z m262.05202541 175.89750295c-7.56378595 4.36615238-16.62769706 6.58080998-26.93907938 6.58080907-39.78883083 0-95.9250712-32.54085986-154.22859773-89.35610431 26.55615239-28.54579138 52.69384944-60.96822132 77.72224401-96.39879547 43.21543129-3.95953923 84.36226939-10.39033651 122.35095056-19.11474558 25.63633923 100.8636399 18.4357415 176.7344136-18.90551746 198.28883629z m43.89048707-241.47268572c-11.45226667-37.30178231-26.4693034-76.16685171-44.64844444-115.56091247 18.18703673-39.42564264 33.20012518-78.29071203 44.64449705-115.55696508 100.13726349 28.21418503 162.25031655 72.4046975 162.25031565 115.56091247-0.00394739 43.14832017-62.11305305 87.33883175-162.24636826 115.55696508z" fill="#00BDFF" p-id="2608"></path><path d="M511.94670567 529.05404808m-80.2171873 0a80.21718821 80.21718821 0 1 0 160.43437551 0 80.21718821 80.21718821 0 1 0-160.43437551 0Z" fill="#00BDFF" p-id="2609"></path></svg>
