<svg t="1575182133512" class="icon" viewBox="0 0 1024 1024" version="1.1" xmlns="http://www.w3.org/2000/svg" p-id="9284" width="128" height="128"><path d="M543.013 510.136l299.975 299.975c17.139 17.138 17.139 44.925 0 62.064-17.138 17.138-44.925 17.138-62.063 0L511.982 603.232 243.039 872.175c-17.139 17.138-44.926 17.138-62.064 0-17.139-17.139-17.139-44.926 0-62.064L480.95 510.136c17.138-17.138 44.925-17.138 62.063 0z m0-365.714l299.975 299.975c17.139 17.138 17.139 44.925 0 62.063-17.138 17.139-44.925 17.139-62.063 0L511.982 237.517 243.039 506.46c-17.139 17.139-44.926 17.139-62.064 0-17.139-17.138-17.139-44.925 0-62.063L480.95 144.422c17.138-17.139 44.925-17.139 62.063 0z" p-id="9285"></path></svg>