<svg t="1579597932103" class="icon" viewBox="0 0 1024 1024" version="1.1" xmlns="http://www.w3.org/2000/svg" p-id="3376" width="200" height="200"><path d="M736 439.04l-224 96v145.92c0 33.28 7.68 67.84 19.2 97.28S556.8 838.4 576 864s44.8 48.64 70.4 67.84 56.32 29.44 89.6 37.12c33.28-7.68 64-23.04 89.6-37.12 25.6-19.2 52.48-40.96 70.4-67.84 19.2-25.6 33.28-52.48 44.8-85.76 11.52-29.44 19.2-64 19.2-97.28V535.04l-224-96zM889.6 774.4c-11.52 21.76-23.04 44.8-37.12 64-15.36 19.2-33.28 37.12-52.48 48.64-19.2 15.36-40.96 25.6-64 29.44V700.16H560.64V561.92L736 487.68v212.48h175.36c-7.68 29.44-10.24 52.48-21.76 74.24z" fill="#40A9FF" p-id="3377"></path><path d="M359.68 232.96c40.96-93.44 81.92-153.6 81.92-153.6-268.8 46.08-350.72 288-350.72 288 78.08-40.96 167.68-56.32 167.68-56.32 15.36-85.76 101.12-78.08 101.12-78.08zM953.6 468.48c-11.52-119.04-71.68-190.72-71.68-190.72-7.68 75.52-37.12 130.56-37.12 130.56 3.84 7.68 7.68 15.36 11.52 19.2l97.28 40.96zM437.76 300.8s142.08 7.68 261.12 85.76c0 0 56.32-44.8 108.8-11.52 0 0 29.44-52.48 33.28-153.6 0 0-108.8-142.08-336.64-149.76 0 0-89.6 119.04-104.96 175.36 5.12 1.28 38.4 26.88 38.4 53.76zM314.88 759.04s0-60.16 37.12-89.6c0 0-48.64-122.88-33.28-249.6 0 0-48.64-11.52-60.16-60.16 0 0-115.2 25.6-186.88 78.08 0 0-37.12 160 52.48 313.6 0-2.56 93.44 19.2 190.72 7.68z m130.56 83.2s-78.08 19.2-104.96-37.12c0 0-101.12 15.36-175.36 0 0 0 119.04 186.88 403.2 160-3.84 0-104.96-93.44-122.88-122.88z m10.24-344.32l33.28-15.36 167.68-70.4c-101.12-52.48-212.48-64-212.48-64-11.52 78.08-78.08 74.24-78.08 74.24 0 171.52 33.28 231.68 33.28 231.68 21.76-3.84 40.96 0 60.16 7.68V497.92h-3.84z" fill="#40A9FF" p-id="3378"></path></svg>
