<svg t="1580812541602" class="icon" viewBox="0 0 1024 1024" version="1.1" xmlns="http://www.w3.org/2000/svg" p-id="6655" width="200" height="200"><path d="M512 404.8c-42.4 0-77.6 30.4-85.6 70.4h172c-8.8-40.8-44-70.4-86.4-70.4z"  p-id="6656"></path><path d="M862.4 214.4h-96v-17.6c0-24-13.6-52.8-79.2-52.8H336.8c-65.6 0-79.2 28.8-79.2 52.8v17.6h-96c-48 0-88 39.2-88 88V792c0 48 39.2 88 88 88h700.8c48 0 88-39.2 88-88V301.6c0-48-40-87.2-88-87.2z m-569.6-17.6c0-16.8 7.2-26.4 44-26.4h350.4c36.8 0 44 9.6 44 26.4v17.6H292.8v-17.6z m602.4 312.8H124.8c-9.6 0-17.6-8-17.6-17.6s8-17.6 17.6-17.6h265.6c8.8-59.2 59.2-105.6 121.6-105.6 61.6 0 112.8 45.6 121.6 105.6H896c9.6 0 17.6 8 17.6 17.6s-8 17.6-18.4 17.6z"  p-id="6657"></path></svg>
