<svg t="1580895917756" class="icon" viewBox="0 0 1024 1024" version="1.1" xmlns="http://www.w3.org/2000/svg" p-id="2489" width="200" height="200"><path d="M831.02895901 219.55407075H671.51564345v-53.16955249c0-29.35299299-23.82005248-53.17188153-53.1695525-53.17188153H405.65972992c-29.37744384 0-53.17421056 23.81888853-53.17420942 53.17304548v53.16838854h-159.51447951c-58.72810781 0-106.34376306 47.61565411-106.34376305 106.34609096V458.59641571h850.74195115V325.90016171c0.00582201-58.73160078-47.61099719-106.34609095-106.34027008-106.34609096z m-212.68170298 0H405.65856597v-26.58535878c0-14.66950997 11.89139683-26.58535879 26.58302976-26.5853588h159.51564459c14.68348302 0 26.58885177 11.91584768 26.58885063 26.5853588v26.58535878z m-106.37287196 372.20200448c29.34833607 0 53.16838855-23.83402439 53.16838855-53.17304547 0-9.73504057-2.78859207-18.71675392-7.3621174-26.58535879H466.20071481c-4.58633216 7.86744093-7.37259634 16.84915314-7.37259634 26.58535879 0 29.34018503 23.76882176 53.17421056 53.1462656 53.17304547z" fill="#1597db" p-id="2490"></path><path d="M614.53637291 511.99883605c2.23203783 8.52529266 3.80622507 17.32653283 3.80622506 26.58535766 0 58.72694386-47.61565411 106.34259797-106.34609095 106.34259911-58.72694386 0-106.34143403-47.61565411-106.34143403-106.34259911 0-9.25766201 1.54507833-18.05890219 3.7480084-26.58535766H86.62960697v292.43894329c0 58.73043683 47.61565411 106.34958393 106.34376192 106.34958393h638.0567552c58.73043683 0 106.34143403-47.62147613 106.34143289-106.34958393V511.99883605H614.53637291z" fill="#1597db" p-id="2491"></path></svg>
