<svg t="1575101070596" class="icon" viewBox="0 0 1450 1024" version="1.1" xmlns="http://www.w3.org/2000/svg" p-id="1203" width="128" height="128"><path d="M218.20108032 494.782852H633.11020932c41.99873 0 76.045059-34.046329 76.045059-76.046881V245.531737H548.45338932c-122.5646 0-241.770467 125.854118-330.252309 249.251115zM747.41822832 0v414.910951c0 41.99873 34.046329 76.045059 76.046881 76.045059h173.204234V330.25413c0-122.5646-125.854118-241.772288-249.251115-330.25413zM1242.19925932 529.218969H827.29013032c-41.99873 0-76.045059 34.048151-76.04506 76.046881v173.204234h160.70188c122.5646 0 241.772288-125.854118 330.252309-249.251115zM712.98211132 1024V609.090871c0-41.99873-34.046329-76.045059-76.046881-76.045059H463.73099632v160.70188c0 122.562778 125.854118 241.770467 249.251115 330.252308z" p-id="1204"></path></svg>