<svg t="1574847959477" class="icon" viewBox="0 0 1024 1024" version="1.1" xmlns="http://www.w3.org/2000/svg" p-id="1585" width="128" height="128"><path d="M340.16099999 369.346c10.927 90.609 102.149 184.495 172.843 184.495 81.169 0 171.684-98.684 183.807-184.495 4.537-3.198 12.037-11.1 14.776-28.96900001 0 0 17.448-62.104-5.553-55.42899999 7.996-24.017 37.28-121.932-30.197-175.216-78.38-69.12-205.246-81.993-205.246-81.993s12.141-24.303-27.792 13.22599999c0 0-75.565 31.622-100.264 108.42100001 0 0-27.848 34.765-8.56 136.78999999-27.426-12.948-8.677 54.201-8.677 54.201 2.722 17.869 10.258 25.771 14.863 28.97000001z" fill="" p-id="1586"></path><path d="M872.71699999 661.997c-22.418-49.652-158.687-92.592-158.687-92.592-72.597-25.61-73.155-51.226-73.155-51.226-32.645 64.353-63.498 99.211-91.662 114.972-12.768 8.343-60.226 6.484-60.226 6.484-69.783-18.222-99.583-120.668-99.583-120.66800001-9.892 38.036-156.926 82.68-156.926 82.68-42.921 16.549-61.156 41.322-61.156 41.322-63.585 94.172-70.96 303.96-70.96 303.96 0.545 32.435 10.17 45.19 16.319 50.037h803.63c8.956-9.185 9.29-15.371 9.29-15.37099999 17.41-150.357-56.884-319.598-56.884-319.598z" fill="" p-id="1587"></path></svg>