<svg t="1577970738312" class="icon" viewBox="0 0 1024 1024" version="1.1" xmlns="http://www.w3.org/2000/svg" p-id="1698" width="200" height="200"><path d="M934.72140396 792.43956555H758.1210683v182.93379224c0 15.02354815-12.22504409 27.24859225-27.24859224 27.24859224h-37.4115807c-15.02354815 0-27.24859225-12.22504409-27.24859225-27.24859224V792.43956555H489.75925714c-7.2171947 0-14.13981003-2.94579374-19.29494909-7.95364313-5.15513907-5.15513907-7.95364315-12.0777544-7.95364314-19.29494911v-37.41158068c0-15.02354815 12.22504409-27.24859225 27.24859223-27.24859227h176.60033566V517.59700814c0-15.02354815 12.22504409-27.24859225 27.24859225-27.24859225h37.41158069c15.02354815 0 27.24859225 12.22504409 27.24859225 27.24859225V700.53080036H934.72140396c7.2171947 0 14.13981003 2.79850407 19.29494911 7.95364315 5.15513907 5.15513907 7.95364315 12.0777544 7.95364312 19.29494912v37.41158068c0 7.2171947-2.94579374 14.13981003-7.95364312 19.29494911-5.15513907 5.15513907-12.0777544 7.95364315-19.29494911 7.95364313zM212.41277503 22.40907778h544.52997576c120.33567493 0 217.84144825 97.50577332 217.84144825 217.84144825v296.05227246c0 26.51214381-25.92298506 30.63625506-25.92298505 30.63625506h-21.94616348c-22.97719129 0-24.89195725-31.07812413-24.89195725-31.07812413v-92.79250331H121.97690674v341.564786s38.00073946 138.7468859 145.08034247 138.74688588h244.35359204s27.6904613 1.91476594 27.6904613 24.74466756V974.48961966c0 25.77569536-26.65943349 27.98504069-26.65943348 27.98504069H267.05724921c-120.33567493 0-217.84144825-97.50577332-217.84144825-217.84144824V21.37804997m72.31923669 70.69905013v280.73414493h784.61216688v-134.03361589c0-129.46763557-128.58389744-146.70052903-128.58389745-146.70052904H245.99482385" fill="" p-id="1699"></path></svg>