<svg t="1574863762175" class="icon" viewBox="0 0 1024 1024" version="1.1" xmlns="http://www.w3.org/2000/svg" p-id="1672" width="128" height="128"><path d="M85.333333 85.333333h853.333334a85.333333 85.333333 0 0 1 85.333333 85.333334v682.666666a85.333333 85.333333 0 0 1-85.333333 85.333334H85.333333a85.333333 85.333333 0 0 1-85.333333-85.333334V170.666667a85.333333 85.333333 0 0 1 85.333333-85.333334z m194.901334 341.333334l-96.981334 97.194666a43.093333 43.093333 0 0 0 0 60.885334 42.922667 42.922667 0 0 0 60.757334 0l127.402666-127.658667a42.922667 42.922667 0 0 0 0-60.842667L244.010667 268.586667a42.922667 42.922667 0 0 0-60.757334 0 43.093333 43.093333 0 0 0 0 60.885333L280.234667 426.666667zM426.666667 512a42.666667 42.666667 0 0 0 0 85.333333h170.666666a42.666667 42.666667 0 0 0 0-85.333333h-170.666666z" p-id="1673"></path></svg>