<svg t="1578491546687" class="icon" viewBox="0 0 1024 1024" version="1.1" xmlns="http://www.w3.org/2000/svg" p-id="1820" width="200" height="200"><path d="M643.3600192 854.20197121C567.33338133 835.26018134 165.4041568 714.86304747 134.0074912 285.29956801c0 0-71.09658347 258.5684128 83.6811968 499.1032032 112.35335893 174.75747733 277.63994133 167.232656 370.53255787 125.84614186C785.81266133 927.37436801 905.69084267 854.20197121 905.69084267 854.20197121c-88.74099093 32.17509653-238.45897813 4.8003168-262.33082347 0zM201.86061653 5.32433814C172.15054827 133.37603094 170.074736 241.83724161 186.42176 333.69195094c17.25519253-72.7831808 49.04107413-105.8664448 49.04107413-105.8664448-31.7858816 85.62727147-23.61236907 178.26041067-19.07152853 212.9005344 18.0336224 46.8355232 40.99730027 88.351776 67.4639104 124.80823467-0.12973867-131.42488853 50.98714773-207.4515264 50.9871488-207.45152534-26.85582613 123.9000672 7.1356064 251.17333013 17.5146688 285.29450027 32.82378773 31.39666667 67.59364907 57.60380053 101.71482027 79.27009493-33.34274027-156.33464 11.67644587-258.5684128 11.67644586-258.5684128-5.05979307 132.8520096 49.68976533 259.217104 71.35605974 304.10655254 82.902768 38.92148693 147.25296 51.50610133 147.25295893 51.50610133s104.95827733-299.30623573-180.9849152-503.77378133C291.25029867 163.99426667 201.86061653 5.32433814 201.86061653 5.32433814z m0 0" p-id="1821"></path></svg>