<svg t="1574848133714" class="icon" viewBox="0 0 1024 1024" version="1.1" xmlns="http://www.w3.org/2000/svg" p-id="2343" width="128" height="128"><path d="M877.5585185 147.91111111l-728.17777777 0C75.90760295 147.91111111 40.15407407 184.32 40.15407407 257.13777778l0 436.90666667c0 72.81777778 37.57397333 109.22666667 109.22666666 109.22666666L258.6074074 803.27111111l0 109.22666667c0 13.47128889 7.42741333 25.77749333 19.22389333 32.03982222C283.21981628 947.45031111 289.11805628 948.90666667 295.01629628 948.90666667c7.06332445 0 14.12664889-2.03889778 20.17052445-6.11669334L524.46511407 803.27111111 877.5585185 803.27111111c72.81777778 0 109.22666667-36.40888889 109.22666667-109.22666666l0-436.90666667C986.78518517 184.32 950.37629628 147.91111111 877.5585185 147.91111111zM298.07464295 518.04387555C276.3021274 518.04387555 258.6074074 500.34915555 258.6074074 478.64945778S276.3021274 439.18222222 298.07464295 439.18222222s39.46723555 17.69472 39.46723555 39.46723556S319.77434073 518.04387555 298.07464295 518.04387555zM516.52797628 518.04387555C494.75546073 518.04387555 477.06074073 500.34915555 477.06074073 478.64945778S494.75546073 439.18222222 516.52797628 439.18222222s39.46723555 17.69472 39.46723556 39.46723556S538.22767407 518.04387555 516.52797628 518.04387555zM734.90849184 518.04387555C713.13597628 518.04387555 695.51407407 500.34915555 695.51407407 478.64945778S713.13597628 439.18222222 734.90849184 439.18222222s39.46723555 17.69472 39.46723556 39.46723556S756.6810074 518.04387555 734.90849184 518.04387555z" p-id="2344"></path></svg>