<svg t="1574863680682" class="icon" viewBox="0 0 1024 1024" version="1.1" xmlns="http://www.w3.org/2000/svg" p-id="1142" width="128" height="128"><path d="M565.54666667 122.13333333l91.41333333 185.17333334c8.53333333 17.28 25.06666667 29.22666667 44.16 32L905.49333333 369.06666667c48 6.93333333 67.2 66.02666667 32.42666667 99.94666666L790.08 613.12c-13.76 13.44-20.05333333 32.85333333-16.85333333 51.84l34.88 203.52c8.21333333 47.89333333-42.02666667 84.37333333-85.01333334 61.76L540.26666667 834.13333333c-17.06666667-8.96-37.44-8.96-54.50666667 0L302.93333333 930.24c-42.98666667 22.61333333-93.22666667-13.86666667-85.01333333-61.76L252.8 664.96c3.30666667-18.98666667-3.09333333-38.4-16.85333333-51.84L88.10666667 469.01333333C53.33333333 435.09333333 72.53333333 376.10666667 120.53333333 369.06666667l204.37333334-29.65333334c19.09333333-2.77333333 35.62666667-14.72 44.16-32l91.41333333-185.17333333c21.54666667-43.73333333 83.62666667-43.73333333 105.06666667-0.10666667z" p-id="1143"></path></svg>