<svg t="1576154063390" class="icon" viewBox="0 0 1024 1024" version="1.1" xmlns="http://www.w3.org/2000/svg" p-id="9122" width="128" height="128"><path d="M62.7 711.5L96.3 675c14.4 18 30.7 29.1 45.8 29.1 15.5 0 25.5-9.2 25.5-23.6 0-20.3-9.6-32.8-30.3-46l-23.7-16.2C89.9 602.1 70 582.2 70 543.5c0-41.6 31.4-74.8 78-74.8 27.4 0 49.5 12.9 70.6 35L190.2 538c-15.2-14-25.9-22.5-41.8-22.5-12.6 0-23.3 8.8-23.3 23.9 0 18.4 9.2 25 33.6 42.4l22.2 15.8c24.8 17.3 42.9 35.4 42.9 75.1 0 43.1-31.8 78.5-81.7 78.5-28.7 0.1-56.8-13.9-79.4-39.7zM252.7 473.2h55.1v108.3h41.8V473.2h54.7v273.7h-54.7V628.3h-41.8v118.6h-55.1V473.2zM446 473.2h137.9v45.7h-82.8v63.7h69.1v45.7h-69.1v72.9h85.8v45.7H446V473.2zM633.4 473.2h55.1v228h85.4v45.7H633.4V473.2zM818.3 473.2h55.1v228h85.4v45.7H818.3V473.2z" fill="#1296db" p-id="9123"></path><path d="M582.9 377.1V63.2h-442c-17.7 0-32.1 14.3-32.1 32V432h802.5v-55H582.9z" fill="#1296db" p-id="9124"></path><path d="M639.4 63.2l271.8 247.9H639.4z" fill="#1296db" p-id="9125"></path><path d="M879.2 959.2H140.8c-17.7 0-32-14.3-32-32v-128h802.5v127.9c-0.1 17.8-14.4 32.1-32.1 32.1z" fill="#1296db" p-id="9126"></path></svg>