<svg t="1577693786421" class="icon" viewBox="0 0 1024 1024" version="1.1" xmlns="http://www.w3.org/2000/svg" p-id="1568" width="200" height="200"><path d="M522.77333333 980.26666667c-6.08 0-12.16-1.49333333-17.6-4.58666667L137.38666667 773.33333333c-8.53333333-4.69333333-14.82666667-12.58666667-17.49333334-21.86666666s-1.6-19.30666667 3.09333334-27.84l276.37333333-501.97333334c4.26666667-7.78666667 11.30666667-13.76 19.73333333-16.74666666L642.45333333 124.8c28.8-10.34666667 60.8-7.78666667 87.68 6.93333333 26.88 14.82666667 46.18666667 40.42666667 52.90666667 70.4l15.78666667 70.29333334c4.37333333 19.73333333-8 39.25333333-27.73333334 43.73333333-19.62666667 4.48-39.25333333-8-43.73333333-27.73333333l-15.78666667-70.29333334c-2.13333333-9.6-8.10666667-17.6-16.74666666-22.29333333-8.53333333-4.69333333-18.45333333-5.54666667-27.73333334-2.13333333l-210.34666666 75.41333333L204.8 726.82666667l303.57333333 167.14666666 251.94666667-457.81333333-6.61333333-29.54666667c-4.37333333-19.73333333 8-39.25333333 27.73333333-43.62666666 19.84-4.48 39.25333333 8 43.73333333 27.73333333l9.6 42.98666667c1.92 8.64 0.64 17.81333333-3.62666666 25.6l-276.26666667 501.97333333c-4.69333333 8.53333333-12.58666667 14.82666667-21.86666667 17.49333333-3.41333333 1.06666667-6.82666667 1.49333333-10.24 1.49333334z" fill="#009FE8" p-id="1569"></path><path d="M575.53991573 412.6590592a48.42666667 48.42666667 0 1 0 46.7053632-84.84796587 48.42666667 48.42666667 0 1 0-46.7053632 84.84796587Z" fill="#009FE8" p-id="1570"></path><path d="M598.82666667 406.82666667c-19.09333333 0-35.2-14.82666667-36.48-34.13333334-1.38666667-20.16 13.76-37.54666667 33.92-38.93333333 8.74666667-0.74666667 205.01333333-19.09333333 232.42666666-266.88 2.24-20.16 20.37333333-34.56 40.42666667-32.32 20.05333333 2.24 34.56 20.37333333 32.32 40.42666667-34.45333333 310.18666667-297.38666667 331.62666667-300.05333333 331.73333333-0.85333333 0.10666667-1.70666667 0.10666667-2.56 0.10666667z" fill="#009FE8" p-id="1571"></path><path d="M471.57333333 823.78666667c-2.88 0-5.86666667-0.74666667-8.64-2.13333334l-177.28-95.14666666c-8.85333333-4.8-12.26666667-15.89333333-7.46666666-24.74666667 4.8-8.85333333 15.78666667-12.26666667 24.74666666-7.46666667l177.28 95.14666667c8.85333333 4.8 12.26666667 15.89333333 7.46666667 24.74666667-3.30666667 6.18666667-9.6 9.6-16.10666667 9.6z" fill="#009FE8" p-id="1572"></path></svg>