<svg t="1575102533032" class="icon" viewBox="0 0 1088 1024" version="1.1" xmlns="http://www.w3.org/2000/svg" p-id="1239" width="128" height="128"><path d="M74.02666667 530.36L332.50666667 329.3l402.18 402.3-201 258.48s2.64-63.24-86.22-86.22c-83.4-21.54-97.92-137.28-170.58-161.28-72.66-24-85.56-74.52-119.16-128.7s-83.7-83.52-83.7-83.52z m775.5-28.56l-68.76-68.76c110.46-96.18 196.74-174.12 212.22-189.72A121.92 121.92 0 0 0 820.60666667 70.94c-15.48 15.6-93.54 101.82-189.6 212.4l-68.76-68.76a81.3 81.3 0 0 0-114.96-0.06l-57.42 57.42 402.24 402.3 57.48-57.54a81.3 81.3 0 0 0-0.06-114.9z m15.9-303.18a58.62 58.62 0 1 1 82.98-82.98 58.56 58.56 0 0 1 0 82.98 58.56 58.56 0 0 1-82.98 0z" p-id="1240"></path></svg>